<svg xmlns="http://www.w3.org/2000/svg" xmlns:xlink="http://www.w3.org/1999/xlink" width="200" zoomAndPan="magnify" viewBox="0 0 375 115" height="50" preserveAspectRatio="xMidYMid meet" version="1.0"><defs><g/><clipPath id="f9ac522de8"><path d="M 302 45.742188 L 334.726562 45.742188 L 334.726562 78 L 302 78 Z M 302 45.742188 " clip-rule="nonzero"/></clipPath><clipPath id="0368285c59"><path d="M 276.632812 66 L 318 66 L 318 107.707031 L 276.632812 107.707031 Z M 276.632812 66 " clip-rule="nonzero"/></clipPath><clipPath id="6b74928fb1"><path d="M 40.636719 38.292969 L 67.75 38.292969 L 67.75 115.746094 L 40.636719 115.746094 Z M 40.636719 38.292969 " clip-rule="nonzero"/></clipPath></defs><g clip-path="url(#f9ac522de8)"><path fill="#b4c851" d="M 331.601562 52.28125 L 331.601562 52.21875 C 330.648438 50.949219 329.507812 49.867188 328.175781 48.851562 L 328.175781 48.917969 C 327.09375 49.742188 326.015625 50.628906 325 51.519531 C 324.558594 51.265625 324.175781 51.074219 323.796875 50.882812 C 323.289062 50.628906 322.78125 50.375 322.210938 50.25 C 322.019531 50.1875 321.828125 50.121094 321.636719 50.121094 C 321.511719 48.726562 321.382812 47.328125 321.195312 45.933594 C 320.558594 45.804688 319.925781 45.804688 319.226562 45.742188 L 318.210938 45.742188 C 317.578125 45.804688 317.007812 45.804688 316.433594 45.933594 C 316.246094 47.265625 316.117188 48.664062 316.054688 50.058594 C 315.800781 50.058594 315.609375 50.121094 315.355469 50.1875 C 315.292969 50.1875 315.230469 50.1875 315.164062 50.25 C 314.660156 50.375 314.152344 50.628906 313.644531 50.882812 C 313.199219 51.074219 312.816406 51.265625 312.4375 51.519531 C 311.359375 50.628906 310.34375 49.804688 309.265625 48.917969 L 309.203125 48.851562 C 308.949219 49.042969 308.695312 49.234375 308.503906 49.425781 C 308.058594 49.742188 307.679688 50.121094 307.359375 50.503906 C 306.789062 51.011719 306.347656 51.644531 305.839844 52.28125 L 305.902344 52.28125 C 306.726562 53.359375 307.613281 54.375 308.503906 55.457031 C 308.25 55.835938 307.996094 56.28125 307.804688 56.660156 C 307.550781 57.167969 307.359375 57.742188 307.234375 58.25 C 307.105469 58.503906 307.042969 58.757812 307.042969 58.949219 C 305.648438 59.074219 304.25 59.203125 302.917969 59.390625 C 302.792969 60.027344 302.730469 60.660156 302.730469 61.359375 C 302.730469 62.3125 302.792969 63.265625 302.984375 64.152344 C 304.316406 64.28125 305.648438 64.40625 307.042969 64.535156 C 307.042969 64.789062 307.105469 65.042969 307.234375 65.234375 C 307.359375 65.804688 307.550781 66.3125 307.804688 66.882812 C 308.058594 67.328125 308.25 67.773438 308.566406 68.152344 C 307.679688 69.234375 306.789062 70.25 305.964844 71.328125 C 306.917969 72.660156 308.058594 73.804688 309.390625 74.757812 L 309.390625 74.691406 C 310.40625 73.867188 311.484375 72.976562 312.5 72.089844 L 312.5625 72.089844 C 312.882812 72.28125 313.261719 72.46875 313.578125 72.660156 C 314.152344 72.914062 314.785156 73.167969 315.355469 73.296875 C 315.609375 73.359375 315.800781 73.421875 315.992188 73.484375 C 316.117188 74.820312 316.246094 76.214844 316.433594 77.613281 C 317.007812 77.675781 317.578125 77.738281 318.210938 77.738281 L 319.164062 77.738281 C 319.863281 77.738281 320.558594 77.675781 321.257812 77.550781 C 321.382812 76.214844 321.511719 74.820312 321.636719 73.421875 C 321.828125 73.359375 322.019531 73.296875 322.210938 73.230469 C 322.78125 73.105469 323.289062 72.914062 323.796875 72.660156 C 324.238281 72.46875 324.683594 72.214844 325.128906 71.898438 C 325.128906 71.960938 325.128906 71.960938 325.191406 71.960938 C 326.207031 72.851562 327.285156 73.742188 328.363281 74.566406 C 328.554688 74.4375 328.746094 74.3125 329 74.121094 C 329.378906 73.804688 329.761719 73.421875 330.078125 73.042969 C 330.648438 72.46875 331.21875 71.835938 331.726562 71.136719 C 330.839844 70.058594 329.949219 68.980469 329.0625 67.960938 L 329.0625 67.898438 C 329.253906 67.582031 329.441406 67.199219 329.632812 66.820312 C 329.824219 66.3125 330.078125 65.804688 330.203125 65.296875 C 330.203125 65.234375 330.203125 65.167969 330.269531 65.167969 C 330.269531 64.914062 330.332031 64.726562 330.394531 64.597656 C 331.792969 64.472656 333.1875 64.34375 334.519531 64.21875 C 334.648438 63.582031 334.648438 62.945312 334.710938 62.3125 L 334.710938 61.234375 C 334.648438 60.597656 334.648438 59.964844 334.519531 59.328125 C 333.1875 59.203125 331.792969 59.074219 330.394531 58.949219 C 330.332031 58.757812 330.269531 58.566406 330.269531 58.375 C 330.078125 57.804688 329.886719 57.234375 329.632812 56.660156 C 329.441406 56.28125 329.191406 55.835938 329 55.457031 C 329.824219 54.441406 330.710938 53.359375 331.601562 52.28125 Z M 314.660156 57.550781 C 315.800781 56.34375 317.195312 55.773438 318.78125 55.835938 C 320.433594 55.773438 321.765625 56.34375 322.972656 57.550781 C 324.113281 58.695312 324.683594 60.089844 324.683594 61.675781 C 324.683594 63.328125 324.113281 64.660156 322.972656 65.867188 C 321.765625 67.011719 320.433594 67.582031 318.78125 67.582031 C 317.195312 67.582031 315.800781 67.011719 314.660156 65.867188 C 313.515625 64.660156 312.945312 63.328125 312.945312 61.675781 C 312.945312 60.089844 313.515625 58.695312 314.660156 57.550781 Z M 314.660156 57.550781 " fill-opacity="1" fill-rule="nonzero"/></g><path fill="#b4c851" d="M 318.847656 56.660156 C 317.449219 56.660156 316.308594 57.167969 315.292969 58.121094 C 314.339844 59.136719 313.832031 60.28125 313.832031 61.675781 C 313.832031 63.074219 314.339844 64.21875 315.292969 65.234375 C 316.308594 66.25 317.449219 66.757812 318.847656 66.757812 C 320.242188 66.757812 321.382812 66.25 322.398438 65.234375 C 323.414062 64.21875 323.859375 63.074219 323.859375 61.675781 C 323.859375 60.28125 323.414062 59.136719 322.398438 58.121094 C 321.382812 57.167969 320.242188 56.660156 318.847656 56.660156 Z M 316.179688 59.011719 C 316.941406 58.3125 317.832031 57.933594 318.847656 57.933594 C 319.863281 57.933594 320.75 58.3125 321.511719 59.011719 C 322.273438 59.773438 322.589844 60.597656 322.589844 61.675781 C 322.589844 62.757812 322.273438 63.644531 321.511719 64.34375 C 320.75 65.105469 319.863281 65.488281 318.847656 65.488281 C 317.832031 65.488281 316.941406 65.105469 316.179688 64.34375 C 315.484375 63.644531 315.101562 62.757812 315.101562 61.675781 C 315.101562 60.660156 315.484375 59.773438 316.179688 59.011719 Z M 316.179688 59.011719 " fill-opacity="1" fill-rule="nonzero"/><g clip-path="url(#0368285c59)"><path fill="#b4c851" d="M 302.539062 67.074219 C 302.285156 66.945312 302.09375 66.882812 301.902344 66.882812 C 301.140625 66.691406 300.382812 66.566406 299.621094 66.4375 C 298.921875 68.152344 298.351562 69.804688 297.78125 71.453125 L 296.636719 71.453125 C 295.875 71.519531 295.175781 71.582031 294.480469 71.707031 C 293.910156 71.773438 293.335938 71.960938 292.765625 72.152344 C 291.75 70.691406 290.671875 69.234375 289.65625 67.835938 L 289.59375 67.773438 C 289.210938 67.898438 288.832031 68.027344 288.515625 68.214844 C 287.878906 68.472656 287.308594 68.789062 286.738281 69.167969 C 285.851562 69.613281 285.023438 70.183594 284.261719 70.882812 L 284.261719 70.945312 C 285.023438 72.535156 285.722656 74.121094 286.484375 75.707031 C 286.039062 76.152344 285.660156 76.535156 285.277344 77.042969 C 284.769531 77.550781 284.328125 78.183594 283.945312 78.820312 C 283.753906 79.074219 283.628906 79.328125 283.5 79.644531 C 281.726562 79.328125 279.949219 79.011719 278.171875 78.753906 C 277.855469 79.519531 277.539062 80.28125 277.285156 81.105469 C 277.03125 82.375 276.777344 83.582031 276.648438 84.789062 L 281.597656 86.691406 L 281.597656 87.582031 C 281.597656 88.277344 281.660156 89.039062 281.851562 89.804688 C 281.914062 90.4375 282.105469 91.074219 282.296875 91.707031 C 280.835938 92.722656 279.441406 93.738281 277.980469 94.820312 C 278.742188 96.722656 279.820312 98.5 281.089844 100.152344 L 281.152344 100.152344 C 282.742188 99.390625 284.328125 98.691406 285.976562 97.929688 C 286.355469 98.308594 286.738281 98.628906 287.117188 99.007812 C 287.691406 99.515625 288.386719 99.960938 289.148438 100.40625 C 289.339844 100.53125 289.59375 100.660156 289.847656 100.851562 C 289.53125 102.5625 289.277344 104.339844 289.023438 106.121094 C 289.71875 106.4375 290.417969 106.691406 291.179688 106.882812 C 291.371094 106.945312 291.75 107.070312 292.386719 107.199219 C 293.273438 107.453125 294.164062 107.578125 294.988281 107.707031 C 295.683594 105.992188 296.320312 104.339844 296.890625 102.628906 L 297.714844 102.628906 C 298.476562 102.628906 299.175781 102.5625 299.875 102.4375 C 300.507812 102.308594 301.140625 102.121094 301.777344 101.929688 C 301.777344 101.929688 301.777344 101.992188 301.839844 101.992188 C 302.855469 103.453125 303.933594 104.914062 304.949219 106.375 C 305.265625 106.183594 305.585938 106.054688 305.839844 105.929688 C 306.472656 105.675781 307.042969 105.359375 307.613281 105.039062 C 308.566406 104.46875 309.453125 103.832031 310.28125 103.136719 C 309.582031 101.484375 308.820312 99.898438 308.058594 98.246094 C 308.441406 97.867188 308.757812 97.484375 309.136719 97.105469 C 309.582031 96.53125 310.027344 95.898438 310.40625 95.328125 C 310.40625 95.261719 310.46875 95.199219 310.46875 95.136719 C 310.597656 94.945312 310.722656 94.691406 310.851562 94.5 C 312.628906 94.820312 314.40625 95.074219 316.179688 95.390625 C 316.5 94.628906 316.753906 93.867188 317.007812 93.039062 C 317.070312 92.851562 317.132812 92.660156 317.195312 92.40625 C 317.261719 92.214844 317.261719 92.023438 317.386719 91.769531 C 317.515625 90.945312 317.703125 90.121094 317.769531 89.359375 C 316.117188 88.660156 314.40625 88.089844 312.753906 87.453125 L 312.753906 86.691406 C 312.753906 85.929688 312.691406 85.105469 312.5 84.34375 C 312.4375 83.769531 312.246094 83.199219 312.121094 82.628906 C 313.578125 81.613281 315.039062 80.535156 316.433594 79.453125 L 316.5 79.453125 C 315.738281 77.550781 314.722656 75.773438 313.324219 74.121094 C 311.675781 74.820312 310.089844 75.582031 308.503906 76.34375 C 308.058594 75.898438 307.613281 75.453125 307.171875 75.074219 C 306.597656 74.628906 306.027344 74.183594 305.394531 73.867188 C 305.203125 73.675781 304.949219 73.550781 304.757812 73.421875 C 305.011719 71.644531 305.332031 69.867188 305.585938 68.089844 C 304.824219 67.773438 303.996094 67.453125 303.171875 67.199219 C 302.984375 67.136719 302.730469 67.074219 302.539062 67.074219 Z M 290.734375 90.820312 C 289.65625 88.976562 289.402344 87.074219 289.972656 85.042969 C 290.480469 83.007812 291.6875 81.484375 293.527344 80.40625 C 295.304688 79.390625 297.273438 79.136719 299.238281 79.644531 C 301.269531 80.214844 302.855469 81.359375 303.871094 83.199219 C 304.949219 85.042969 305.203125 86.945312 304.632812 88.976562 C 304.125 91.007812 302.917969 92.53125 301.140625 93.546875 C 299.238281 94.628906 297.335938 94.882812 295.367188 94.308594 C 293.335938 93.800781 291.75 92.597656 290.734375 90.820312 Z M 290.734375 90.820312 " fill-opacity="1" fill-rule="nonzero"/></g><path fill="#b4c851" d="M 291.117188 85.359375 C 290.609375 87.074219 290.800781 88.722656 291.6875 90.246094 L 291.75 90.246094 C 292.640625 91.835938 293.972656 92.785156 295.683594 93.292969 C 297.398438 93.738281 299.046875 93.546875 300.636719 92.660156 C 302.222656 91.707031 303.171875 90.4375 303.679688 88.722656 L 303.679688 88.660156 C 304.125 86.945312 303.871094 85.296875 302.984375 83.769531 C 302.09375 82.183594 300.761719 81.167969 299.046875 80.722656 C 297.335938 80.214844 295.621094 80.46875 294.097656 81.359375 C 292.511719 82.246094 291.5625 83.582031 291.117188 85.359375 Z M 294.925781 82.820312 C 296.128906 82.121094 297.335938 81.929688 298.605469 82.3125 C 299.875 82.628906 300.886719 83.390625 301.585938 84.597656 C 302.285156 85.738281 302.410156 87.007812 302.09375 88.277344 C 301.714844 89.550781 300.953125 90.566406 299.808594 91.199219 L 299.808594 91.261719 C 298.605469 91.898438 297.398438 92.089844 296.128906 91.707031 C 294.796875 91.390625 293.84375 90.628906 293.148438 89.421875 C 292.511719 88.277344 292.320312 87.074219 292.640625 85.738281 C 293.019531 84.46875 293.78125 83.515625 294.925781 82.820312 Z M 294.925781 82.820312 " fill-opacity="1" fill-rule="nonzero"/><g clip-path="url(#6b74928fb1)"><path fill="#286040" d="M 67.730469 107.609375 L 67.730469 114.773438 C 67.730469 115.238281 67.335938 115.617188 66.855469 115.617188 L 63.101562 115.617188 C 62.617188 115.617188 62.226562 115.238281 62.226562 114.773438 L 62.226562 107.609375 C 62.226562 107.144531 62.617188 106.765625 63.101562 106.765625 L 66.855469 106.765625 C 67.335938 106.765625 67.730469 107.144531 67.730469 107.609375 Z M 60.492188 89.519531 L 60.492188 93.164062 C 60.492188 93.628906 60.101562 94.007812 59.621094 94.007812 L 55.867188 94.007812 C 55.382812 94.007812 54.992188 93.628906 54.992188 93.164062 L 54.992188 89.519531 C 54.992188 89.050781 55.382812 88.675781 55.867188 88.675781 L 59.621094 88.675781 C 60.101562 88.675781 60.492188 89.050781 60.492188 89.519531 Z M 60.539062 55.394531 L 60.539062 59.042969 C 60.539062 59.507812 60.148438 59.886719 59.664062 59.886719 L 55.910156 59.886719 C 55.429688 59.886719 55.039062 59.507812 55.039062 59.042969 L 55.039062 55.394531 C 55.039062 54.929688 55.429688 54.554688 55.910156 54.554688 L 59.664062 54.554688 C 60.148438 54.554688 60.539062 54.929688 60.539062 55.394531 Z M 60.523438 62.226562 L 60.523438 65.875 C 60.523438 66.339844 60.132812 66.71875 59.648438 66.71875 L 55.898438 66.71875 C 55.414062 66.71875 55.023438 66.339844 55.023438 65.875 L 55.023438 62.226562 C 55.023438 61.761719 55.414062 61.382812 55.898438 61.382812 L 59.648438 61.382812 C 60.132812 61.382812 60.523438 61.761719 60.523438 62.226562 Z M 60.507812 69.054688 L 60.507812 72.703125 C 60.507812 73.167969 60.117188 73.546875 59.632812 73.546875 L 55.882812 73.546875 C 55.398438 73.546875 55.007812 73.167969 55.007812 72.703125 L 55.007812 69.054688 C 55.007812 68.589844 55.398438 68.214844 55.882812 68.214844 L 59.632812 68.214844 C 60.117188 68.214844 60.507812 68.589844 60.507812 69.054688 Z M 60.492188 75.886719 L 60.492188 79.535156 C 60.492188 80 60.101562 80.378906 59.621094 80.378906 L 55.867188 80.378906 C 55.382812 80.378906 54.992188 80 54.992188 79.535156 L 54.992188 75.886719 C 54.992188 75.421875 55.382812 75.042969 55.867188 75.042969 L 59.621094 75.042969 C 60.101562 75.042969 60.492188 75.421875 60.492188 75.886719 Z M 60.480469 82.714844 L 60.480469 86.363281 C 60.480469 86.828125 60.085938 87.207031 59.605469 87.207031 L 55.851562 87.207031 C 55.367188 87.207031 54.976562 86.828125 54.976562 86.363281 L 54.976562 82.714844 C 54.976562 82.25 55.367188 81.875 55.851562 81.875 L 59.605469 81.875 C 60.085938 81.875 60.480469 82.25 60.480469 82.714844 Z M 60.464844 96.363281 L 60.464844 100.007812 C 60.464844 100.476562 60.070312 100.851562 59.589844 100.851562 L 55.835938 100.851562 C 55.355469 100.851562 54.960938 100.476562 54.960938 100.007812 L 54.960938 96.363281 C 54.960938 95.898438 55.355469 95.519531 55.835938 95.519531 L 59.589844 95.519531 C 60.070312 95.519531 60.464844 95.898438 60.464844 96.363281 Z M 53.410156 51.632812 L 53.410156 55.28125 C 53.410156 55.746094 53.019531 56.121094 52.535156 56.121094 L 48.78125 56.121094 C 48.300781 56.121094 47.90625 55.746094 47.90625 55.28125 L 47.90625 51.632812 C 47.90625 51.167969 48.300781 50.789062 48.78125 50.789062 L 52.535156 50.789062 C 53.019531 50.789062 53.410156 51.167969 53.410156 51.632812 Z M 53.394531 58.460938 L 53.394531 62.109375 C 53.394531 62.574219 53.003906 62.953125 52.519531 62.953125 L 48.765625 62.953125 C 48.285156 62.953125 47.894531 62.574219 47.894531 62.109375 L 47.894531 58.460938 C 47.894531 57.996094 48.285156 57.621094 48.765625 57.621094 L 52.519531 57.621094 C 53.003906 57.621094 53.394531 57.996094 53.394531 58.460938 Z M 53.378906 65.292969 L 53.378906 68.941406 C 53.378906 69.40625 52.988281 69.78125 52.503906 69.78125 L 48.753906 69.78125 C 48.269531 69.78125 47.878906 69.40625 47.878906 68.941406 L 47.878906 65.292969 C 47.878906 64.828125 48.269531 64.449219 48.753906 64.449219 L 52.503906 64.449219 C 52.988281 64.449219 53.378906 64.828125 53.378906 65.292969 Z M 53.363281 72.121094 L 53.363281 75.769531 C 53.363281 76.234375 52.972656 76.613281 52.488281 76.613281 L 48.738281 76.613281 C 48.253906 76.613281 47.863281 76.234375 47.863281 75.769531 L 47.863281 72.121094 C 47.863281 71.65625 48.253906 71.28125 48.738281 71.28125 L 52.488281 71.28125 C 52.972656 71.28125 53.363281 71.65625 53.363281 72.121094 Z M 53.347656 78.953125 L 53.347656 82.601562 C 53.347656 83.066406 52.957031 83.441406 52.476562 83.441406 L 48.722656 83.441406 C 48.238281 83.441406 47.847656 83.066406 47.847656 82.601562 L 47.847656 78.953125 C 47.847656 78.488281 48.238281 78.109375 48.722656 78.109375 L 52.476562 78.109375 C 52.957031 78.109375 53.347656 78.488281 53.347656 78.953125 Z M 53.335938 85.78125 L 53.335938 89.429688 C 53.335938 89.894531 52.941406 90.273438 52.460938 90.273438 L 48.707031 90.273438 C 48.222656 90.273438 47.832031 89.894531 47.832031 89.429688 L 47.832031 85.78125 C 47.832031 85.316406 48.222656 84.941406 48.707031 84.941406 L 52.460938 84.941406 C 52.941406 84.941406 53.335938 85.316406 53.335938 85.78125 Z M 53.320312 92.613281 L 53.320312 96.261719 C 53.320312 96.726562 52.925781 97.101562 52.445312 97.101562 L 48.691406 97.101562 C 48.210938 97.101562 47.816406 96.726562 47.816406 96.261719 L 47.816406 92.613281 C 47.816406 92.148438 48.210938 91.769531 48.691406 91.769531 L 52.445312 91.769531 C 52.925781 91.769531 53.320312 92.148438 53.320312 92.613281 Z M 53.304688 99.441406 L 53.304688 103.089844 C 53.304688 103.554688 52.914062 103.933594 52.429688 103.933594 L 48.675781 103.933594 C 48.195312 103.933594 47.800781 103.554688 47.800781 103.089844 L 47.800781 99.441406 C 47.800781 98.976562 48.195312 98.601562 48.675781 98.601562 L 52.429688 98.601562 C 52.914062 98.601562 53.304688 98.976562 53.304688 99.441406 Z M 46.28125 56.601562 L 46.28125 60.25 C 46.28125 60.714844 45.886719 61.09375 45.40625 61.09375 L 41.652344 61.09375 C 41.171875 61.09375 40.777344 60.714844 40.777344 60.25 L 40.777344 56.601562 C 40.777344 56.136719 41.171875 55.757812 41.652344 55.757812 L 45.40625 55.757812 C 45.886719 55.757812 46.28125 56.136719 46.28125 56.601562 Z M 46.265625 63.433594 L 46.265625 67.082031 C 46.265625 67.546875 45.875 67.921875 45.390625 67.921875 L 41.636719 67.921875 C 41.15625 67.921875 40.761719 67.546875 40.761719 67.082031 L 40.761719 63.433594 C 40.761719 62.96875 41.15625 62.589844 41.636719 62.589844 L 45.390625 62.589844 C 45.875 62.589844 46.265625 62.96875 46.265625 63.433594 Z M 46.25 70.261719 L 46.25 73.910156 C 46.25 74.375 45.859375 74.753906 45.375 74.753906 L 41.621094 74.753906 C 41.140625 74.753906 40.75 74.375 40.75 73.910156 L 40.75 70.261719 C 40.75 69.796875 41.140625 69.417969 41.621094 69.417969 L 45.375 69.417969 C 45.859375 69.417969 46.25 69.796875 46.25 70.261719 Z M 46.234375 77.09375 L 46.234375 80.742188 C 46.234375 81.207031 45.84375 81.582031 45.359375 81.582031 L 41.609375 81.582031 C 41.125 81.582031 40.734375 81.207031 40.734375 80.742188 L 40.734375 77.09375 C 40.734375 76.628906 41.125 76.25 41.609375 76.25 L 45.359375 76.25 C 45.84375 76.25 46.234375 76.628906 46.234375 77.09375 Z M 46.21875 83.921875 L 46.21875 87.570312 C 46.21875 88.035156 45.828125 88.414062 45.34375 88.414062 L 41.59375 88.414062 C 41.109375 88.414062 40.71875 88.035156 40.71875 87.570312 L 40.71875 83.921875 C 40.71875 83.457031 41.109375 83.078125 41.59375 83.078125 L 45.34375 83.078125 C 45.828125 83.078125 46.21875 83.457031 46.21875 83.921875 Z M 46.203125 90.753906 L 46.203125 94.398438 C 46.203125 94.867188 45.8125 95.242188 45.332031 95.242188 L 41.578125 95.242188 C 41.09375 95.242188 40.703125 94.867188 40.703125 94.398438 L 40.703125 90.753906 C 40.703125 90.289062 41.09375 89.910156 41.578125 89.910156 L 45.332031 89.910156 C 45.8125 89.910156 46.203125 90.289062 46.203125 90.753906 Z M 46.191406 97.582031 L 46.191406 101.230469 C 46.191406 101.695312 45.796875 102.074219 45.316406 102.074219 L 41.5625 102.074219 C 41.078125 102.074219 40.6875 101.695312 40.6875 101.230469 L 40.6875 97.582031 C 40.6875 97.117188 41.078125 96.738281 41.5625 96.738281 L 45.316406 96.738281 C 45.796875 96.738281 46.191406 97.117188 46.191406 97.582031 Z M 46.175781 104.414062 L 46.175781 108.058594 C 46.175781 108.527344 45.78125 108.902344 45.300781 108.902344 L 41.546875 108.902344 C 41.066406 108.902344 40.671875 108.527344 40.671875 108.058594 L 40.671875 104.414062 C 40.671875 103.949219 41.066406 103.570312 41.546875 103.570312 L 45.300781 103.570312 C 45.78125 103.570312 46.175781 103.949219 46.175781 104.414062 Z M 46.160156 111.242188 L 46.160156 114.890625 C 46.160156 115.355469 45.769531 115.734375 45.285156 115.734375 L 41.53125 115.734375 C 41.050781 115.734375 40.65625 115.355469 40.65625 114.890625 L 40.65625 111.242188 C 40.65625 110.777344 41.050781 110.398438 41.53125 110.398438 L 45.285156 110.398438 C 45.769531 110.398438 46.160156 110.777344 46.160156 111.242188 Z M 46.324219 39.136719 L 46.324219 53.316406 C 46.324219 53.785156 45.933594 54.160156 45.449219 54.160156 L 41.699219 54.160156 C 41.214844 54.160156 40.824219 53.785156 40.824219 53.316406 L 40.824219 39.136719 C 40.824219 38.671875 41.214844 38.292969 41.699219 38.292969 L 45.449219 38.292969 C 45.933594 38.292969 46.324219 38.671875 46.324219 39.136719 Z M 60.523438 39.136719 L 60.523438 52.214844 C 60.523438 52.679688 60.132812 53.058594 59.648438 53.058594 L 55.898438 53.058594 C 55.414062 53.058594 55.023438 52.679688 55.023438 52.214844 L 55.023438 39.136719 C 55.023438 38.671875 55.414062 38.292969 55.898438 38.292969 L 59.648438 38.292969 C 60.132812 38.292969 60.523438 38.671875 60.523438 39.136719 Z M 53.257812 39.136719 L 53.257812 48.378906 C 53.257812 48.84375 52.867188 49.21875 52.382812 49.21875 L 48.632812 49.21875 C 48.148438 49.21875 47.757812 48.84375 47.757812 48.378906 L 47.757812 39.136719 C 47.757812 38.671875 48.148438 38.292969 48.632812 38.292969 L 52.382812 38.292969 C 52.867188 38.292969 53.257812 38.671875 53.257812 39.136719 Z M 53.257812 106.332031 L 53.257812 114.90625 C 53.257812 115.371094 52.867188 115.746094 52.382812 115.746094 L 48.632812 115.746094 C 48.148438 115.746094 47.757812 115.371094 47.757812 114.90625 L 47.757812 106.332031 C 47.757812 105.867188 48.148438 105.488281 48.632812 105.488281 L 52.382812 105.488281 C 52.867188 105.488281 53.257812 105.867188 53.257812 106.332031 Z M 60.359375 103.292969 L 60.359375 114.890625 C 60.359375 115.355469 59.964844 115.734375 59.484375 115.734375 L 55.730469 115.734375 C 55.25 115.734375 54.855469 115.355469 54.855469 114.890625 L 54.855469 103.292969 C 54.855469 102.828125 55.25 102.449219 55.730469 102.449219 L 59.484375 102.449219 C 59.964844 102.449219 60.359375 102.828125 60.359375 103.292969 Z M 62.105469 54.613281 L 62.105469 49.554688 C 62.105469 49.089844 62.5 48.710938 62.980469 48.710938 L 66.734375 48.710938 C 67.214844 48.710938 67.609375 49.089844 67.609375 49.554688 L 67.609375 54.613281 C 67.609375 55.078125 67.214844 55.453125 66.734375 55.453125 L 62.980469 55.453125 C 62.5 55.453125 62.105469 55.078125 62.105469 54.613281 Z M 62.105469 46.359375 L 62.105469 39.191406 C 62.105469 38.726562 62.5 38.351562 62.980469 38.351562 L 66.734375 38.351562 C 67.214844 38.351562 67.609375 38.726562 67.609375 39.191406 L 67.609375 46.359375 C 67.609375 46.824219 67.214844 47.199219 66.734375 47.199219 L 62.980469 47.199219 C 62.5 47.199219 62.105469 46.824219 62.105469 46.359375 Z M 67.609375 57.78125 L 67.609375 96.304688 C 67.609375 96.769531 67.214844 97.148438 66.734375 97.148438 L 62.980469 97.148438 C 62.5 97.148438 62.105469 96.769531 62.105469 96.304688 L 62.105469 57.78125 C 62.105469 57.316406 62.5 56.9375 62.980469 56.9375 L 66.734375 56.9375 C 67.214844 56.9375 67.609375 57.316406 67.609375 57.78125 Z M 67.609375 99.472656 L 67.609375 104.527344 C 67.609375 104.996094 67.214844 105.371094 66.734375 105.371094 L 62.980469 105.371094 C 62.5 105.371094 62.105469 104.996094 62.105469 104.527344 L 62.105469 99.472656 C 62.105469 99.007812 62.5 98.628906 62.980469 98.628906 L 66.734375 98.628906 C 67.214844 98.628906 67.609375 99.007812 67.609375 99.472656 Z M 67.609375 99.472656 " fill-opacity="1" fill-rule="evenodd"/></g><g fill="#008037" fill-opacity="1"><g transform="translate(67.169663, 111.941321)"><g><path d="M 38.859375 -72.878906 L 8.863281 -72.878906 L 8.863281 0 L 41.4375 0 C 55.25 0 62.363281 -10.925781 62.363281 -21.75 C 62.363281 -28.554688 59.375 -36.179688 51.128906 -39.6875 C 56.074219 -43.398438 58.34375 -48.652344 58.34375 -53.910156 C 58.34375 -63.496094 50.820312 -72.878906 38.859375 -72.878906 Z M 38.65625 -43.398438 L 19.171875 -43.398438 L 19.171875 -62.980469 L 38.859375 -62.980469 C 44.738281 -62.980469 47.519531 -58.34375 47.519531 -53.5 C 47.519531 -48.550781 44.425781 -43.398438 38.65625 -43.398438 Z M 41.4375 -10.101562 L 19.171875 -10.101562 L 19.171875 -33.089844 L 41.4375 -33.089844 C 48.449219 -33.089844 51.953125 -27.316406 51.953125 -21.648438 C 51.953125 -15.976562 48.449219 -10.101562 41.4375 -10.101562 Z M 41.4375 -10.101562 "/></g></g></g><g fill="#008037" fill-opacity="1"><g transform="translate(133.345852, 111.941321)"><g><path d="M 8.863281 0 L 19.277344 0 L 19.277344 -50.820312 L 38.140625 -22.78125 L 44.015625 -22.78125 L 62.878906 -50.820312 L 62.878906 0 L 73.1875 0 L 73.1875 -72.15625 L 64.941406 -72.15625 L 41.128906 -37.109375 L 17.316406 -72.15625 L 8.863281 -72.15625 Z M 8.863281 0 "/></g></g></g><g fill="#008037" fill-opacity="1"><g transform="translate(215.293006, 111.941321)"><g><path d="M 44.941406 -53.5 L 55.25 -53.910156 C 53.394531 -67.105469 41.851562 -72.878906 30.71875 -72.878906 C 22.367188 -72.878906 13.710938 -69.578125 8.863281 -63.292969 C 6.183594 -59.785156 4.84375 -55.664062 4.84375 -51.332031 C 4.84375 -50.820312 4.949219 -50.199219 4.949219 -49.582031 L 4.949219 -49.683594 C 6.082031 -34.636719 19.277344 -32.160156 30.511719 -31.027344 C 37.726562 -30.304688 45.148438 -29.378906 46.386719 -23.914062 C 46.59375 -22.988281 46.695312 -22.164062 46.695312 -21.441406 C 46.695312 -14.019531 38.242188 -9.691406 30.511719 -9.691406 C 23.8125 -9.691406 15.667969 -13.195312 14.945312 -19.894531 L 14.945312 -19.480469 L 14.84375 -21.027344 L 4.328125 -20.820312 L 4.433594 -18.863281 C 5.773438 -5.980469 19.277344 0.617188 30.410156 0.617188 C 43.398438 0.617188 57.210938 -7.421875 57.210938 -21.335938 C 57.210938 -22.78125 57.003906 -24.53125 56.695312 -26.078125 C 53.910156 -37.625 41.644531 -40.203125 31.75 -41.4375 C 23.707031 -42.160156 15.359375 -43.191406 15.359375 -51.539062 C 15.359375 -53.601562 15.875 -55.664062 17.109375 -57.210938 C 20.101562 -61.023438 25.5625 -62.671875 30.511719 -62.671875 C 36.695312 -62.671875 43.5 -59.890625 44.941406 -53.5 Z M 44.941406 -53.5 "/></g></g></g></svg>
