<svg xmlns="http://www.w3.org/2000/svg" xmlns:xlink="http://www.w3.org/1999/xlink" width="300" zoomAndPan="magnify" viewBox="0 0 224.87999 74.999997" height="100" preserveAspectRatio="xMidYMid meet" version="1.0"><defs><g/><clipPath id="e818e4e724"><path d="M 85 34 L 95 34 L 95 45.746094 L 85 45.746094 Z M 85 34 " clip-rule="nonzero"/></clipPath><clipPath id="0685001614"><path d="M 130 34 L 140 34 L 140 45.746094 L 130 45.746094 Z M 130 34 " clip-rule="nonzero"/></clipPath><clipPath id="e677aa64b0"><path d="M 84.476562 7.515625 L 140.699219 7.515625 L 140.699219 41 L 84.476562 41 Z M 84.476562 7.515625 " clip-rule="nonzero"/></clipPath></defs><g clip-path="url(#e818e4e724)"><path fill="#fa6bff" d="M 92.558594 45.734375 L 87.796875 45.734375 C 86.621094 45.734375 85.667969 44.78125 85.667969 43.613281 L 85.667969 36.632812 C 85.667969 35.464844 86.621094 34.511719 87.796875 34.511719 L 92.5625 34.511719 C 93.738281 34.511719 94.691406 35.464844 94.691406 36.632812 L 94.691406 43.613281 C 94.691406 44.78125 93.734375 45.734375 92.558594 45.734375 Z M 92.558594 45.734375 " fill-opacity="1" fill-rule="nonzero"/></g><g clip-path="url(#0685001614)"><path fill="#fa6bff" d="M 137.371094 45.734375 L 132.609375 45.734375 C 131.429688 45.734375 130.476562 44.78125 130.476562 43.613281 L 130.476562 36.632812 C 130.476562 35.464844 131.429688 34.511719 132.609375 34.511719 L 137.371094 34.511719 C 138.546875 34.511719 139.503906 35.464844 139.503906 36.632812 L 139.503906 43.613281 C 139.507812 44.78125 138.554688 45.734375 137.371094 45.734375 Z M 137.371094 45.734375 " fill-opacity="1" fill-rule="nonzero"/></g><g clip-path="url(#e677aa64b0)"><path fill="#fa6bff" d="M 140.699219 34.554688 C 140.699219 34.605469 140.699219 34.65625 140.699219 34.707031 C 140.699219 34.78125 140.699219 34.851562 140.691406 34.925781 C 140.613281 38.742188 139.160156 40.242188 137.105469 40.265625 C 137.085938 40.265625 137.070312 40.265625 137.054688 40.265625 L 88.113281 40.265625 C 88.097656 40.265625 88.085938 40.265625 88.070312 40.265625 C 86.011719 40.246094 84.5625 38.746094 84.480469 34.925781 C 84.480469 34.851562 84.476562 34.78125 84.476562 34.707031 C 84.476562 34.65625 84.476562 34.605469 84.476562 34.554688 L 84.75 27.828125 C 84.75 27.8125 84.75 27.804688 84.753906 27.789062 C 84.753906 27.773438 84.757812 27.757812 84.757812 27.738281 C 84.765625 27.703125 84.765625 27.664062 84.769531 27.628906 C 84.773438 27.601562 84.773438 27.570312 84.777344 27.542969 C 84.78125 27.507812 84.789062 27.476562 84.792969 27.445312 C 84.796875 27.414062 84.800781 27.378906 84.804688 27.351562 C 84.8125 27.320312 84.816406 27.289062 84.820312 27.253906 C 84.824219 27.222656 84.828125 27.191406 84.839844 27.160156 C 84.855469 27.058594 84.875 26.957031 84.898438 26.855469 C 84.917969 26.765625 84.9375 26.683594 84.957031 26.601562 C 84.96875 26.570312 84.976562 26.535156 84.980469 26.503906 C 85 26.445312 85.015625 26.378906 85.03125 26.320312 C 85.050781 26.257812 85.066406 26.203125 85.089844 26.144531 C 85.097656 26.117188 85.113281 26.078125 85.128906 26.035156 C 85.203125 25.863281 85.355469 25.574219 85.636719 25.226562 C 85.695312 25.15625 85.761719 25.082031 85.828125 25.003906 C 87.054688 23.636719 90.121094 20.417969 91.144531 19.347656 C 91.371094 19.113281 91.5625 18.84375 91.71875 18.554688 C 91.71875 18.554688 91.71875 18.550781 91.71875 18.550781 L 92.433594 17.222656 L 93.6875 14.886719 L 94.308594 13.734375 L 94.613281 13.164062 L 95.53125 11.457031 L 96.433594 9.773438 C 96.464844 9.714844 96.5 9.660156 96.535156 9.597656 C 96.550781 9.582031 96.558594 9.5625 96.574219 9.542969 C 96.589844 9.511719 96.613281 9.484375 96.632812 9.457031 C 96.65625 9.429688 96.675781 9.398438 96.699219 9.367188 C 96.785156 9.253906 96.886719 9.144531 96.992188 9.042969 C 97.625 8.4375 98.539062 8.039062 99.535156 7.972656 C 99.914062 7.945312 100.296875 7.921875 100.679688 7.898438 C 101.035156 7.875 101.394531 7.855469 101.757812 7.832031 C 102.007812 7.820312 102.257812 7.804688 102.507812 7.792969 C 102.761719 7.777344 103.019531 7.765625 103.273438 7.753906 C 103.445312 7.746094 103.617188 7.738281 103.785156 7.730469 C 104.929688 7.679688 106.09375 7.636719 107.28125 7.601562 C 108.578125 7.566406 109.902344 7.542969 111.25 7.535156 C 111.339844 7.535156 111.433594 7.535156 111.519531 7.535156 C 111.882812 7.535156 112.242188 7.527344 112.601562 7.527344 C 112.785156 7.527344 112.960938 7.527344 113.136719 7.527344 C 113.300781 7.527344 113.46875 7.527344 113.636719 7.527344 C 113.722656 7.527344 113.8125 7.527344 113.90625 7.527344 C 115.257812 7.539062 116.582031 7.5625 117.882812 7.597656 C 117.984375 7.601562 118.082031 7.601562 118.183594 7.609375 L 118.191406 7.609375 C 119.3125 7.640625 120.410156 7.679688 121.488281 7.730469 C 121.8125 7.746094 122.132812 7.765625 122.457031 7.777344 L 122.460938 7.777344 C 122.78125 7.796875 123.097656 7.808594 123.410156 7.828125 C 123.773438 7.851562 124.132812 7.871094 124.492188 7.894531 C 124.875 7.917969 125.253906 7.945312 125.632812 7.96875 C 126.628906 8.03125 127.546875 8.433594 128.175781 9.035156 C 128.28125 9.136719 128.382812 9.25 128.472656 9.363281 C 128.496094 9.390625 128.519531 9.425781 128.539062 9.453125 C 128.554688 9.480469 128.578125 9.511719 128.597656 9.539062 C 128.613281 9.558594 128.621094 9.578125 128.632812 9.59375 C 128.671875 9.648438 128.703125 9.710938 128.738281 9.769531 L 129.640625 11.453125 L 130.554688 13.160156 L 130.863281 13.730469 L 131.484375 14.882812 L 132.738281 17.21875 L 133.449219 18.546875 C 133.449219 18.546875 133.449219 18.550781 133.453125 18.550781 C 133.613281 18.839844 133.800781 19.109375 134.027344 19.34375 C 135.050781 20.414062 138.121094 23.632812 139.34375 25 C 139.414062 25.078125 139.480469 25.152344 139.539062 25.222656 C 139.816406 25.566406 139.96875 25.859375 140.042969 26.027344 C 140.0625 26.074219 140.078125 26.113281 140.085938 26.140625 C 140.105469 26.199219 140.125 26.253906 140.136719 26.316406 C 140.15625 26.375 140.175781 26.4375 140.1875 26.5 C 140.195312 26.53125 140.207031 26.5625 140.210938 26.597656 C 140.230469 26.679688 140.253906 26.765625 140.269531 26.851562 C 140.292969 26.953125 140.3125 27.050781 140.332031 27.152344 C 140.335938 27.1875 140.339844 27.21875 140.34375 27.25 C 140.351562 27.285156 140.355469 27.316406 140.359375 27.347656 C 140.363281 27.378906 140.367188 27.414062 140.375 27.441406 C 140.378906 27.472656 140.382812 27.503906 140.386719 27.535156 C 140.390625 27.566406 140.390625 27.597656 140.394531 27.625 C 140.402344 27.660156 140.40625 27.699219 140.40625 27.734375 C 140.40625 27.753906 140.40625 27.765625 140.410156 27.785156 C 140.410156 27.800781 140.410156 27.808594 140.414062 27.824219 Z M 140.699219 34.554688 " fill-opacity="1" fill-rule="nonzero"/></g><path fill="#ffffff" d="M 126.855469 27.007812 L 126.628906 26.84375 C 126.652344 26.8125 126.675781 26.78125 126.699219 26.742188 C 126.882812 26.480469 127.324219 25.820312 127.839844 25.050781 C 128.550781 23.980469 129.445312 22.648438 130.070312 21.742188 L 130.296875 21.898438 C 129.667969 22.804688 128.777344 24.132812 128.066406 25.203125 C 127.550781 25.96875 127.105469 26.632812 126.925781 26.902344 C 126.902344 26.941406 126.875 26.980469 126.855469 27.007812 Z M 126.855469 27.007812 " fill-opacity="1" fill-rule="nonzero"/><path fill="#ffffff" d="M 98.3125 27.007812 L 98.304688 26.988281 C 98.285156 26.960938 98.265625 26.933594 98.242188 26.90625 C 98.0625 26.648438 97.625 25.988281 97.113281 25.222656 C 96.394531 24.148438 95.503906 22.808594 94.871094 21.902344 L 95.101562 21.746094 C 95.730469 22.660156 96.625 23.996094 97.347656 25.070312 C 97.855469 25.832031 98.296875 26.488281 98.476562 26.75 C 98.492188 26.777344 98.515625 26.804688 98.53125 26.832031 L 98.546875 26.851562 Z M 98.3125 27.007812 " fill-opacity="1" fill-rule="nonzero"/><path fill="#ffffff" d="M 127.003906 32.234375 C 127.019531 32.253906 127.03125 32.277344 127.050781 32.296875 C 127.398438 32.710938 127.992188 32.71875 128.507812 32.703125 C 130.675781 32.613281 132.84375 32.53125 135.011719 32.441406 C 135.359375 32.429688 135.722656 32.410156 136.023438 32.21875 C 136.390625 31.976562 136.582031 31.53125 136.746094 31.109375 C 137.230469 29.886719 137.722656 28.597656 137.566406 27.285156 C 137.53125 26.96875 137.445312 26.640625 137.246094 26.40625 C 136.835938 25.917969 136.113281 25.96875 135.507812 26.09375 C 133.148438 26.582031 130.722656 27.59375 128.597656 28.777344 C 128.125 29.039062 127.648438 29.332031 127.285156 29.753906 C 126.796875 30.316406 126.523438 31.570312 127.003906 32.234375 Z M 127.003906 32.234375 " fill-opacity="1" fill-rule="nonzero"/><path fill="#ffffff" d="M 98.164062 32.234375 C 98.152344 32.253906 98.136719 32.277344 98.117188 32.296875 C 97.773438 32.710938 97.179688 32.71875 96.660156 32.703125 C 94.492188 32.613281 92.324219 32.53125 90.160156 32.441406 C 89.8125 32.429688 89.445312 32.410156 89.144531 32.21875 C 88.777344 31.976562 88.589844 31.53125 88.421875 31.109375 C 87.941406 29.886719 87.445312 28.597656 87.601562 27.285156 C 87.640625 26.96875 87.722656 26.640625 87.921875 26.40625 C 88.335938 25.917969 89.058594 25.96875 89.664062 26.09375 C 92.019531 26.582031 94.445312 27.59375 96.574219 28.777344 C 97.042969 29.039062 97.523438 29.332031 97.882812 29.753906 C 98.375 30.316406 98.648438 31.570312 98.164062 32.234375 Z M 98.164062 32.234375 " fill-opacity="1" fill-rule="nonzero"/><path fill="#ffffff" d="M 122.234375 33.429688 L 102.933594 33.429688 C 102.53125 33.429688 102.175781 33.171875 102.050781 32.792969 L 100.90625 29.324219 C 100.707031 28.726562 101.15625 28.109375 101.792969 28.109375 L 123.382812 28.109375 C 124.019531 28.109375 124.46875 28.726562 124.269531 29.324219 L 123.125 32.792969 C 122.996094 33.171875 122.636719 33.429688 122.234375 33.429688 Z M 122.234375 33.429688 " fill-opacity="1" fill-rule="nonzero"/><path fill="#ffffff" d="M 135.765625 37.929688 L 133.484375 37.929688 C 133.167969 37.929688 132.914062 37.675781 132.914062 37.363281 L 132.914062 36.34375 C 132.914062 36.03125 133.167969 35.777344 133.484375 35.777344 L 135.765625 35.777344 C 136.082031 35.777344 136.335938 36.03125 136.335938 36.34375 L 136.335938 37.363281 C 136.335938 37.675781 136.082031 37.929688 135.765625 37.929688 Z M 135.765625 37.929688 " fill-opacity="1" fill-rule="nonzero"/><path fill="#ffffff" d="M 131.414062 37.929688 L 126.535156 37.929688 C 126.222656 37.929688 125.96875 37.675781 125.96875 37.363281 L 125.96875 36.34375 C 125.96875 36.03125 126.222656 35.777344 126.535156 35.777344 L 131.414062 35.777344 C 131.726562 35.777344 131.984375 36.03125 131.984375 36.34375 L 131.984375 37.363281 C 131.984375 37.675781 131.726562 37.929688 131.414062 37.929688 Z M 131.414062 37.929688 " fill-opacity="1" fill-rule="nonzero"/><path fill="#ffffff" d="M 89.402344 37.929688 L 91.6875 37.929688 C 92.003906 37.929688 92.257812 37.675781 92.257812 37.363281 L 92.257812 36.34375 C 92.257812 36.03125 92.003906 35.777344 91.6875 35.777344 L 89.402344 35.777344 C 89.089844 35.777344 88.835938 36.03125 88.835938 36.34375 L 88.835938 37.363281 C 88.835938 37.675781 89.089844 37.929688 89.402344 37.929688 Z M 89.402344 37.929688 " fill-opacity="1" fill-rule="nonzero"/><path fill="#ffffff" d="M 93.757812 37.929688 L 98.632812 37.929688 C 98.949219 37.929688 99.203125 37.675781 99.203125 37.363281 L 99.203125 36.34375 C 99.203125 36.03125 98.949219 35.777344 98.632812 35.777344 L 93.757812 35.777344 C 93.441406 35.777344 93.1875 36.03125 93.1875 36.34375 L 93.1875 37.363281 C 93.1875 37.675781 93.441406 37.929688 93.757812 37.929688 Z M 93.757812 37.929688 " fill-opacity="1" fill-rule="nonzero"/><path fill="#ffffff" d="M 132.3125 19.351562 L 92.859375 19.351562 C 92.878906 19.320312 92.894531 19.289062 92.914062 19.253906 L 92.960938 19.179688 L 92.980469 19.136719 L 94.910156 15.542969 L 95.53125 14.390625 L 95.835938 13.820312 L 96.753906 12.113281 L 97.65625 10.433594 C 97.675781 10.398438 97.691406 10.371094 97.707031 10.347656 C 97.710938 10.335938 97.714844 10.328125 97.722656 10.324219 L 97.730469 10.308594 C 97.738281 10.296875 97.75 10.28125 97.757812 10.273438 C 97.765625 10.257812 97.78125 10.242188 97.792969 10.226562 C 97.847656 10.160156 97.902344 10.101562 97.957031 10.046875 C 98.367188 9.65625 98.980469 9.40625 99.632812 9.359375 C 100.070312 9.332031 100.433594 9.308594 100.769531 9.285156 C 101.125 9.261719 101.480469 9.246094 101.835938 9.222656 C 102.082031 9.207031 102.332031 9.195312 102.582031 9.179688 C 102.832031 9.167969 103.085938 9.152344 103.34375 9.144531 C 103.511719 9.132812 103.679688 9.128906 103.851562 9.121094 C 104.996094 9.070312 106.164062 9.023438 107.320312 8.992188 C 108.640625 8.953125 109.964844 8.929688 111.261719 8.921875 L 111.265625 8.921875 C 111.347656 8.921875 111.433594 8.921875 111.515625 8.921875 L 111.523438 8.921875 C 111.882812 8.921875 112.242188 8.917969 112.601562 8.917969 C 112.78125 8.917969 112.960938 8.917969 113.136719 8.917969 L 113.148438 8.917969 C 113.308594 8.917969 113.46875 8.917969 113.625 8.917969 L 113.640625 8.917969 C 113.722656 8.917969 113.808594 8.917969 113.890625 8.917969 L 113.894531 8.917969 C 115.191406 8.925781 116.519531 8.949219 117.84375 8.984375 C 117.941406 8.992188 118.039062 8.992188 118.136719 8.996094 L 118.167969 8.996094 C 119.261719 9.027344 120.355469 9.070312 121.425781 9.121094 C 121.746094 9.132812 122.0625 9.152344 122.382812 9.167969 L 122.425781 9.167969 C 122.730469 9.183594 123.03125 9.199219 123.332031 9.214844 C 123.6875 9.234375 124.046875 9.257812 124.402344 9.28125 C 124.742188 9.300781 125.101562 9.328125 125.535156 9.355469 C 126.195312 9.402344 126.800781 9.648438 127.214844 10.042969 C 127.273438 10.097656 127.324219 10.15625 127.375 10.21875 C 127.390625 10.234375 127.402344 10.253906 127.417969 10.269531 C 127.425781 10.28125 127.433594 10.292969 127.445312 10.304688 L 127.453125 10.320312 C 127.457031 10.328125 127.464844 10.332031 127.46875 10.34375 C 127.484375 10.371094 127.503906 10.398438 127.519531 10.425781 L 128.421875 12.109375 L 129.339844 13.8125 L 129.644531 14.386719 L 130.265625 15.539062 L 132.253906 19.242188 L 132.261719 19.246094 C 132.273438 19.28125 132.292969 19.320312 132.3125 19.351562 Z M 132.3125 19.351562 " fill-opacity="1" fill-rule="nonzero"/><path fill="#fa6bff" d="M 138.742188 18.914062 C 138.667969 19.273438 138.421875 19.546875 138.113281 19.621094 C 137.484375 19.765625 136.792969 19.894531 136.058594 19.992188 C 135.214844 20.097656 134.425781 20.148438 133.707031 20.15625 C 133.285156 20.160156 132.933594 19.789062 132.890625 19.304688 C 132.859375 18.929688 132.839844 18.515625 132.839844 18.085938 C 132.839844 17.570312 132.863281 17.097656 132.902344 16.664062 C 132.941406 16.234375 133.226562 15.890625 133.597656 15.828125 C 134.28125 15.71875 135.058594 15.648438 135.914062 15.652344 C 136.710938 15.664062 137.4375 15.738281 138.078125 15.84375 C 138.40625 15.898438 138.671875 16.179688 138.753906 16.558594 C 138.816406 16.890625 138.867188 17.285156 138.863281 17.734375 C 138.863281 18.183594 138.8125 18.582031 138.742188 18.914062 Z M 138.742188 18.914062 " fill-opacity="1" fill-rule="nonzero"/><path fill="#fa6bff" d="M 86.425781 18.914062 C 86.5 19.273438 86.746094 19.546875 87.054688 19.621094 C 87.6875 19.765625 88.375 19.894531 89.113281 19.992188 C 89.957031 20.097656 90.742188 20.148438 91.464844 20.15625 C 91.886719 20.160156 92.238281 19.789062 92.28125 19.304688 C 92.3125 18.929688 92.332031 18.515625 92.332031 18.085938 C 92.332031 17.570312 92.308594 17.097656 92.265625 16.664062 C 92.230469 16.234375 91.941406 15.890625 91.570312 15.828125 C 90.890625 15.71875 90.113281 15.648438 89.257812 15.652344 C 88.460938 15.664062 87.734375 15.738281 87.09375 15.84375 C 86.765625 15.898438 86.496094 16.179688 86.417969 16.558594 C 86.351562 16.890625 86.300781 17.285156 86.304688 17.734375 C 86.304688 18.183594 86.355469 18.582031 86.425781 18.914062 Z M 86.425781 18.914062 " fill-opacity="1" fill-rule="nonzero"/><g fill="#545454" fill-opacity="1"><g transform="translate(49.386239, 68.729058)"><g><path d="M 4.03125 0.140625 C 2.96875 0.140625 2.117188 -0.191406 1.484375 -0.859375 C 0.847656 -1.523438 0.53125 -2.441406 0.53125 -3.609375 L 0.53125 -10.328125 C 0.53125 -11.773438 0.816406 -12.867188 1.390625 -13.609375 C 1.960938 -14.347656 2.867188 -14.71875 4.109375 -14.71875 C 5.179688 -14.71875 6.046875 -14.421875 6.703125 -13.828125 C 7.359375 -13.242188 7.6875 -12.394531 7.6875 -11.28125 L 7.6875 -8.765625 L 4.78125 -8.765625 L 4.78125 -10.921875 C 4.78125 -11.347656 4.726562 -11.640625 4.625 -11.796875 C 4.53125 -11.953125 4.359375 -12.03125 4.109375 -12.03125 C 3.847656 -12.03125 3.664062 -11.9375 3.5625 -11.75 C 3.46875 -11.570312 3.421875 -11.3125 3.421875 -10.96875 L 3.421875 -3.640625 C 3.421875 -3.265625 3.476562 -2.988281 3.59375 -2.8125 C 3.707031 -2.632812 3.878906 -2.546875 4.109375 -2.546875 C 4.554688 -2.546875 4.78125 -2.910156 4.78125 -3.640625 L 4.78125 -6.28125 L 7.71875 -6.28125 L 7.71875 -3.53125 C 7.71875 -1.082031 6.488281 0.140625 4.03125 0.140625 Z M 4.03125 0.140625 "/></g></g></g><g fill="#545454" fill-opacity="1"><g transform="translate(57.425131, 68.729058)"><g><path d="M 0.25 0 L 1.65625 -14.578125 L 6.59375 -14.578125 L 8 0 L 5.21875 0 L 5.015625 -2.359375 L 3.265625 -2.359375 L 3.09375 0 Z M 3.484375 -4.6875 L 4.796875 -4.6875 L 4.15625 -12.09375 L 4.015625 -12.09375 Z M 3.484375 -4.6875 "/></g></g></g><g fill="#545454" fill-opacity="1"><g transform="translate(65.650577, 68.729058)"><g><path d="M 0.640625 -14.578125 L 5.125 -14.578125 C 5.832031 -14.578125 6.378906 -14.414062 6.765625 -14.09375 C 7.160156 -13.769531 7.425781 -13.316406 7.5625 -12.734375 C 7.695312 -12.148438 7.765625 -11.40625 7.765625 -10.5 C 7.765625 -9.675781 7.65625 -9.03125 7.4375 -8.5625 C 7.226562 -8.101562 6.859375 -7.785156 6.328125 -7.609375 C 6.765625 -7.515625 7.082031 -7.289062 7.28125 -6.9375 C 7.476562 -6.59375 7.578125 -6.117188 7.578125 -5.515625 L 7.546875 0 L 4.703125 0 L 4.703125 -5.703125 C 4.703125 -6.109375 4.617188 -6.367188 4.453125 -6.484375 C 4.296875 -6.597656 4.007812 -6.65625 3.59375 -6.65625 L 3.59375 0 L 0.640625 0 Z M 4.3125 -9.1875 C 4.71875 -9.1875 4.921875 -9.625 4.921875 -10.5 C 4.921875 -10.882812 4.898438 -11.171875 4.859375 -11.359375 C 4.828125 -11.554688 4.765625 -11.691406 4.671875 -11.765625 C 4.585938 -11.835938 4.460938 -11.875 4.296875 -11.875 L 3.609375 -11.875 L 3.609375 -9.1875 Z M 4.3125 -9.1875 "/></g></g></g><g fill="#545454" fill-opacity="1"><g transform="translate(73.740345, 68.729058)"><g/></g></g><g fill="#545454" fill-opacity="1"><g transform="translate(77.708915, 68.729058)"><g><path d="M 0.640625 -14.578125 L 5.125 -14.578125 C 5.832031 -14.578125 6.378906 -14.414062 6.765625 -14.09375 C 7.160156 -13.769531 7.425781 -13.316406 7.5625 -12.734375 C 7.695312 -12.148438 7.765625 -11.40625 7.765625 -10.5 C 7.765625 -9.675781 7.65625 -9.03125 7.4375 -8.5625 C 7.226562 -8.101562 6.859375 -7.785156 6.328125 -7.609375 C 6.765625 -7.515625 7.082031 -7.289062 7.28125 -6.9375 C 7.476562 -6.59375 7.578125 -6.117188 7.578125 -5.515625 L 7.546875 0 L 4.703125 0 L 4.703125 -5.703125 C 4.703125 -6.109375 4.617188 -6.367188 4.453125 -6.484375 C 4.296875 -6.597656 4.007812 -6.65625 3.59375 -6.65625 L 3.59375 0 L 0.640625 0 Z M 4.3125 -9.1875 C 4.71875 -9.1875 4.921875 -9.625 4.921875 -10.5 C 4.921875 -10.882812 4.898438 -11.171875 4.859375 -11.359375 C 4.828125 -11.554688 4.765625 -11.691406 4.671875 -11.765625 C 4.585938 -11.835938 4.460938 -11.875 4.296875 -11.875 L 3.609375 -11.875 L 3.609375 -9.1875 Z M 4.3125 -9.1875 "/></g></g></g><g fill="#545454" fill-opacity="1"><g transform="translate(85.798683, 68.729058)"><g><path d="M 0.640625 0 L 0.640625 -14.578125 L 6.484375 -14.578125 L 6.484375 -11.765625 L 3.609375 -11.765625 L 3.609375 -8.921875 L 6.359375 -8.921875 L 6.359375 -6.171875 L 3.609375 -6.171875 L 3.609375 -2.828125 L 6.671875 -2.828125 L 6.671875 0 Z M 0.640625 0 "/></g></g></g><g fill="#545454" fill-opacity="1"><g transform="translate(92.786069, 68.729058)"><g><path d="M 0.640625 0 L 0.640625 -14.578125 L 3.640625 -14.578125 L 4.984375 -7.609375 L 4.984375 -14.578125 L 7.8125 -14.578125 L 7.8125 0 L 4.953125 0 L 3.5 -7.296875 L 3.5 0 Z M 0.640625 0 "/></g></g></g><g fill="#545454" fill-opacity="1"><g transform="translate(101.231993, 68.729058)"><g><path d="M 1.90625 0 L 1.90625 -11.78125 L 0.171875 -11.78125 L 0.171875 -14.578125 L 6.546875 -14.578125 L 6.546875 -11.78125 L 4.8125 -11.78125 L 4.8125 0 Z M 1.90625 0 "/></g></g></g><g fill="#545454" fill-opacity="1"><g transform="translate(107.948025, 68.729058)"><g><path d="M 0.25 0 L 1.65625 -14.578125 L 6.59375 -14.578125 L 8 0 L 5.21875 0 L 5.015625 -2.359375 L 3.265625 -2.359375 L 3.09375 0 Z M 3.484375 -4.6875 L 4.796875 -4.6875 L 4.15625 -12.09375 L 4.015625 -12.09375 Z M 3.484375 -4.6875 "/></g></g></g><g fill="#545454" fill-opacity="1"><g transform="translate(116.173471, 68.729058)"><g><path d="M 0.640625 0 L 0.640625 -14.578125 L 3.5625 -14.578125 L 3.5625 -2.484375 L 6.5625 -2.484375 L 6.5625 0 Z M 0.640625 0 "/></g></g></g><g fill="#545454" fill-opacity="1"><g transform="translate(122.906465, 68.729058)"><g/></g></g><g fill="#545454" fill-opacity="1"><g transform="translate(126.875034, 68.729058)"><g><path d="M 4.109375 0.140625 C 2.785156 0.140625 1.828125 -0.1875 1.234375 -0.84375 C 0.648438 -1.5 0.359375 -2.554688 0.359375 -4.015625 L 0.359375 -5.453125 L 3.21875 -5.453125 L 3.21875 -3.625 C 3.21875 -2.90625 3.453125 -2.546875 3.921875 -2.546875 C 4.179688 -2.546875 4.359375 -2.617188 4.453125 -2.765625 C 4.554688 -2.921875 4.609375 -3.179688 4.609375 -3.546875 C 4.609375 -4.023438 4.550781 -4.414062 4.4375 -4.71875 C 4.332031 -5.03125 4.191406 -5.289062 4.015625 -5.5 C 3.835938 -5.707031 3.523438 -6.035156 3.078125 -6.484375 L 1.8125 -7.734375 C 0.84375 -8.679688 0.359375 -9.734375 0.359375 -10.890625 C 0.359375 -12.140625 0.640625 -13.085938 1.203125 -13.734375 C 1.773438 -14.390625 2.613281 -14.71875 3.71875 -14.71875 C 5.03125 -14.71875 5.972656 -14.367188 6.546875 -13.671875 C 7.128906 -12.972656 7.421875 -11.882812 7.421875 -10.40625 L 4.453125 -10.40625 L 4.421875 -11.40625 C 4.421875 -11.59375 4.367188 -11.742188 4.265625 -11.859375 C 4.160156 -11.972656 4.007812 -12.03125 3.8125 -12.03125 C 3.59375 -12.03125 3.425781 -11.96875 3.3125 -11.84375 C 3.195312 -11.71875 3.140625 -11.546875 3.140625 -11.328125 C 3.140625 -10.859375 3.410156 -10.367188 3.953125 -9.859375 L 5.65625 -8.234375 C 6.050781 -7.847656 6.378906 -7.484375 6.640625 -7.140625 C 6.898438 -6.796875 7.109375 -6.382812 7.265625 -5.90625 C 7.421875 -5.4375 7.5 -4.878906 7.5 -4.234375 C 7.5 -2.804688 7.234375 -1.71875 6.703125 -0.96875 C 6.179688 -0.226562 5.316406 0.140625 4.109375 0.140625 Z M 4.109375 0.140625 "/></g></g></g><g fill="#545454" fill-opacity="1"><g transform="translate(134.693448, 68.729058)"><g><path d="M 0.640625 0 L 0.640625 -14.578125 L 6.484375 -14.578125 L 6.484375 -11.765625 L 3.609375 -11.765625 L 3.609375 -8.921875 L 6.359375 -8.921875 L 6.359375 -6.171875 L 3.609375 -6.171875 L 3.609375 -2.828125 L 6.671875 -2.828125 L 6.671875 0 Z M 0.640625 0 "/></g></g></g><g fill="#545454" fill-opacity="1"><g transform="translate(141.680834, 68.729058)"><g><path d="M 0.640625 -14.578125 L 5.125 -14.578125 C 5.832031 -14.578125 6.378906 -14.414062 6.765625 -14.09375 C 7.160156 -13.769531 7.425781 -13.316406 7.5625 -12.734375 C 7.695312 -12.148438 7.765625 -11.40625 7.765625 -10.5 C 7.765625 -9.675781 7.65625 -9.03125 7.4375 -8.5625 C 7.226562 -8.101562 6.859375 -7.785156 6.328125 -7.609375 C 6.765625 -7.515625 7.082031 -7.289062 7.28125 -6.9375 C 7.476562 -6.59375 7.578125 -6.117188 7.578125 -5.515625 L 7.546875 0 L 4.703125 0 L 4.703125 -5.703125 C 4.703125 -6.109375 4.617188 -6.367188 4.453125 -6.484375 C 4.296875 -6.597656 4.007812 -6.65625 3.59375 -6.65625 L 3.59375 0 L 0.640625 0 Z M 4.3125 -9.1875 C 4.71875 -9.1875 4.921875 -9.625 4.921875 -10.5 C 4.921875 -10.882812 4.898438 -11.171875 4.859375 -11.359375 C 4.828125 -11.554688 4.765625 -11.691406 4.671875 -11.765625 C 4.585938 -11.835938 4.460938 -11.875 4.296875 -11.875 L 3.609375 -11.875 L 3.609375 -9.1875 Z M 4.3125 -9.1875 "/></g></g></g><g fill="#545454" fill-opacity="1"><g transform="translate(149.770602, 68.729058)"><g><path d="M 1.984375 0 L 0.1875 -14.59375 L 2.96875 -14.59375 L 4.03125 -4.671875 L 4.984375 -14.59375 L 7.765625 -14.59375 L 5.96875 0 Z M 1.984375 0 "/></g></g></g><g fill="#545454" fill-opacity="1"><g transform="translate(157.724693, 68.729058)"><g><path d="M 0.515625 0 L 0.515625 -14.578125 L 3.328125 -14.578125 L 3.328125 0 Z M 0.515625 0 "/></g></g></g><g fill="#545454" fill-opacity="1"><g transform="translate(161.574537, 68.729058)"><g><path d="M 4.03125 0.140625 C 2.96875 0.140625 2.117188 -0.191406 1.484375 -0.859375 C 0.847656 -1.523438 0.53125 -2.441406 0.53125 -3.609375 L 0.53125 -10.328125 C 0.53125 -11.773438 0.816406 -12.867188 1.390625 -13.609375 C 1.960938 -14.347656 2.867188 -14.71875 4.109375 -14.71875 C 5.179688 -14.71875 6.046875 -14.421875 6.703125 -13.828125 C 7.359375 -13.242188 7.6875 -12.394531 7.6875 -11.28125 L 7.6875 -8.765625 L 4.78125 -8.765625 L 4.78125 -10.921875 C 4.78125 -11.347656 4.726562 -11.640625 4.625 -11.796875 C 4.53125 -11.953125 4.359375 -12.03125 4.109375 -12.03125 C 3.847656 -12.03125 3.664062 -11.9375 3.5625 -11.75 C 3.46875 -11.570312 3.421875 -11.3125 3.421875 -10.96875 L 3.421875 -3.640625 C 3.421875 -3.265625 3.476562 -2.988281 3.59375 -2.8125 C 3.707031 -2.632812 3.878906 -2.546875 4.109375 -2.546875 C 4.554688 -2.546875 4.78125 -2.910156 4.78125 -3.640625 L 4.78125 -6.28125 L 7.71875 -6.28125 L 7.71875 -3.53125 C 7.71875 -1.082031 6.488281 0.140625 4.03125 0.140625 Z M 4.03125 0.140625 "/></g></g></g><g fill="#545454" fill-opacity="1"><g transform="translate(169.613429, 68.729058)"><g><path d="M 0.640625 0 L 0.640625 -14.578125 L 6.484375 -14.578125 L 6.484375 -11.765625 L 3.609375 -11.765625 L 3.609375 -8.921875 L 6.359375 -8.921875 L 6.359375 -6.171875 L 3.609375 -6.171875 L 3.609375 -2.828125 L 6.671875 -2.828125 L 6.671875 0 Z M 0.640625 0 "/></g></g></g></svg>