<?xml version="1.0" encoding="UTF-8"?>
<!DOCTYPE svg PUBLIC "-//W3C//DTD SVG 1.1//EN" "http://www.w3.org/Graphics/SVG/1.1/DTD/svg11.dtd">
<svg xmlns="http://www.w3.org/2000/svg" version="1.1" width="200" height="75" xmlns:xlink="http://www.w3.org/1999/xlink">
<g><path style="opacity:1" fill="#d7d7d7" d="M -0.5,-0.5 C 88.5,-0.5 177.5,-0.5 266.5,-0.5C 266.5,32.8333 266.5,66.1667 266.5,99.5C 177.5,99.5 88.5,99.5 -0.5,99.5C -0.5,66.1667 -0.5,32.8333 -0.5,-0.5 Z"/></g>
<g><path style="opacity:1" fill="#ba2130" d="M 266.5,-0.5 C 277.5,-0.5 288.5,-0.5 299.5,-0.5C 299.5,32.8333 299.5,66.1667 299.5,99.5C 288.5,99.5 277.5,99.5 266.5,99.5C 266.5,66.1667 266.5,32.8333 266.5,-0.5 Z"/></g>
<g><path style="opacity:1" fill="#797979" d="M 96.5,19.5 C 100.355,18.8454 103.188,20.1788 105,23.5C 105.667,28.5 105.667,33.5 105,38.5C 103.179,41.9907 100.346,43.1574 96.5,42C 95.2986,41.0975 94.4652,39.9308 94,38.5C 93.3333,33.1667 93.3333,27.8333 94,22.5C 95.045,21.6266 95.8783,20.6266 96.5,19.5 Z"/></g>
<g><path style="opacity:1" fill="#767676" d="M 113.5,19.5 C 114.833,19.5 116.167,19.5 117.5,19.5C 117.797,26.5581 117.464,33.5581 116.5,40.5C 113.005,43.3682 109.838,43.0349 107,39.5C 106.503,36.854 106.336,34.1873 106.5,31.5C 108.167,31.5 109.833,31.5 111.5,31.5C 111.337,33.8568 111.503,36.1902 112,38.5C 112.333,38.1667 112.667,37.8333 113,37.5C 113.499,31.5092 113.666,25.5092 113.5,19.5 Z"/></g>
<g><path style="opacity:1" fill="#787878" d="M 118.5,19.5 C 121.833,19.5 125.167,19.5 128.5,19.5C 126.884,27.0532 126.217,34.7199 126.5,42.5C 124.833,42.5 123.167,42.5 121.5,42.5C 121.5,36.1667 121.5,29.8333 121.5,23.5C 120.5,23.5 119.5,23.5 118.5,23.5C 118.5,22.1667 118.5,20.8333 118.5,19.5 Z"/></g>
<g><path style="opacity:1" fill="#c9c9c9" d="M 98.5,23.5 C 99.8086,25.5706 100.475,28.0706 100.5,31C 100.167,33.5 99.8333,36 99.5,38.5C 98.5059,33.544 98.1725,28.544 98.5,23.5 Z"/></g>
<g><path style="opacity:1" fill="#b8b1b2" d="M 80.5,49.5 C 80.8092,44.7325 80.3092,40.0658 79,35.5C 77.0669,31.0834 74.5669,27.0834 71.5,23.5C 71.0472,22.5416 70.3805,21.7083 69.5,21C 71.745,21.1953 73.5784,22.3619 75,24.5C 82.0504,33.4218 84.3837,43.4218 82,54.5C 81.8019,52.6183 81.3019,50.9516 80.5,49.5 Z"/></g>
<g><path style="opacity:1" fill="#797979" d="M 93.5,48.5 C 96.1667,48.5 98.8333,48.5 101.5,48.5C 102.501,65.8295 103.501,65.8295 104.5,48.5C 106.833,48.5 109.167,48.5 111.5,48.5C 111.5,56.1667 111.5,63.8333 111.5,71.5C 110.167,71.5 108.833,71.5 107.5,71.5C 107.49,52.8919 106.823,52.8919 105.5,71.5C 103.833,71.5 102.167,71.5 100.5,71.5C 99.1941,59.5936 98.5274,59.5936 98.5,71.5C 96.8333,71.5 95.1667,71.5 93.5,71.5C 93.5,63.8333 93.5,56.1667 93.5,48.5 Z"/></g>
<g><path style="opacity:1" fill="#7b7b7b" d="M 115.5,48.5 C 118.167,48.5 120.833,48.5 123.5,48.5C 124.222,56.1604 124.888,63.8271 125.5,71.5C 124.167,71.5 122.833,71.5 121.5,71.5C 121.5,70.1667 121.5,68.8333 121.5,67.5C 120.5,67.5 119.5,67.5 118.5,67.5C 118.5,68.8333 118.5,70.1667 118.5,71.5C 116.833,71.5 115.167,71.5 113.5,71.5C 114.233,63.8398 114.899,56.1731 115.5,48.5 Z"/></g>
<g><path style="opacity:1" fill="#767676" d="M 127.5,48.5 C 129.167,48.5 130.833,48.5 132.5,48.5C 132.833,55.1667 133.167,55.1667 133.5,48.5C 135.167,48.5 136.833,48.5 138.5,48.5C 138.5,56.1667 138.5,63.8333 138.5,71.5C 136.833,71.5 135.167,71.5 133.5,71.5C 132.208,59.6112 131.541,59.6112 131.5,71.5C 130.167,71.5 128.833,71.5 127.5,71.5C 127.5,63.8333 127.5,56.1667 127.5,48.5 Z"/></g>
<g><path style="opacity:1" fill="#7b7b7b" d="M 141.5,48.5 C 144.5,48.5 147.5,48.5 150.5,48.5C 150.755,56.2056 151.422,63.8722 152.5,71.5C 150.833,71.5 149.167,71.5 147.5,71.5C 147.5,70.1667 147.5,68.8333 147.5,67.5C 146.5,67.5 145.5,67.5 144.5,67.5C 144.5,68.8333 144.5,70.1667 144.5,71.5C 143.167,71.5 141.833,71.5 140.5,71.5C 140.889,63.8363 141.222,56.1696 141.5,48.5 Z"/></g>
<g><path style="opacity:1" fill="#7a7a7a" d="M 156.5,48.5 C 162.183,47.6464 164.849,49.9797 164.5,55.5C 163.167,55.5 161.833,55.5 160.5,55.5C 160.719,54.325 160.386,53.325 159.5,52.5C 158.167,57.5 158.167,62.5 159.5,67.5C 160.401,64.205 160.401,60.8717 159.5,57.5C 161.5,57.5 163.5,57.5 165.5,57.5C 165.5,62.1667 165.5,66.8333 165.5,71.5C 162.542,70.6438 159.542,70.4771 156.5,71C 155.299,70.0975 154.465,68.9308 154,67.5C 153.333,62.1667 153.333,56.8333 154,51.5C 155.045,50.6266 155.878,49.6266 156.5,48.5 Z"/></g>
<g><path style="opacity:1" fill="#777777" d="M 166.5,48.5 C 169.5,48.5 172.5,48.5 175.5,48.5C 175.5,49.8333 175.5,51.1667 175.5,52.5C 174.167,52.5 172.833,52.5 171.5,52.5C 171.5,54.1667 171.5,55.8333 171.5,57.5C 172.833,57.5 174.167,57.5 175.5,57.5C 175.5,58.8333 175.5,60.1667 175.5,61.5C 174.167,61.5 172.833,61.5 171.5,61.5C 171.5,63.1667 171.5,64.8333 171.5,66.5C 173.167,66.5 174.833,66.5 176.5,66.5C 176.5,68.1667 176.5,69.8333 176.5,71.5C 173.167,71.5 169.833,71.5 166.5,71.5C 166.5,63.8333 166.5,56.1667 166.5,48.5 Z"/></g>
<g><path style="opacity:1" fill="#7a7a7a" d="M 178.5,48.5 C 180.833,48.5 183.167,48.5 185.5,48.5C 186.495,64.4782 187.495,64.4782 188.5,48.5C 191.167,48.5 193.833,48.5 196.5,48.5C 196.5,56.1667 196.5,63.8333 196.5,71.5C 194.833,71.5 193.167,71.5 191.5,71.5C 191.475,56.9212 190.809,56.9212 189.5,71.5C 187.833,71.5 186.167,71.5 184.5,71.5C 183.19,55.5863 182.524,55.5863 182.5,71.5C 181.167,71.5 179.833,71.5 178.5,71.5C 178.5,63.8333 178.5,56.1667 178.5,48.5 Z"/></g>
<g><path style="opacity:1" fill="#737373" d="M 198.5,48.5 C 201.5,48.5 204.5,48.5 207.5,48.5C 207.5,49.8333 207.5,51.1667 207.5,52.5C 205.833,52.5 204.167,52.5 202.5,52.5C 202.5,54.1667 202.5,55.8333 202.5,57.5C 204.167,57.5 205.833,57.5 207.5,57.5C 207.5,58.8333 207.5,60.1667 207.5,61.5C 205.833,61.5 204.167,61.5 202.5,61.5C 202.5,63.5 202.5,65.5 202.5,67.5C 204.167,67.5 205.833,67.5 207.5,67.5C 207.5,68.8333 207.5,70.1667 207.5,71.5C 204.5,71.5 201.5,71.5 198.5,71.5C 198.5,63.8333 198.5,56.1667 198.5,48.5 Z"/></g>
<g><path style="opacity:1" fill="#747474" d="M 209.5,48.5 C 211.167,48.5 212.833,48.5 214.5,48.5C 215.814,61.7526 216.481,61.7526 216.5,48.5C 217.833,48.5 219.167,48.5 220.5,48.5C 220.5,56.1667 220.5,63.8333 220.5,71.5C 218.833,71.5 217.167,71.5 215.5,71.5C 214.191,56.9212 213.525,56.9212 213.5,71.5C 212.167,71.5 210.833,71.5 209.5,71.5C 209.5,63.8333 209.5,56.1667 209.5,48.5 Z"/></g>
<g><path style="opacity:1" fill="#787878" d="M 222.5,48.5 C 225.833,48.5 229.167,48.5 232.5,48.5C 232.5,50.1667 232.5,51.8333 232.5,53.5C 231.5,53.5 230.5,53.5 229.5,53.5C 229.5,59.5 229.5,65.5 229.5,71.5C 227.833,71.5 226.167,71.5 224.5,71.5C 224.871,63.6995 224.204,56.0329 222.5,48.5 Z"/></g>
<g><path style="opacity:1" fill="#be2d39" d="M 71.5,23.5 C 74.5669,27.0834 77.0669,31.0834 79,35.5C 80.3092,40.0658 80.8092,44.7325 80.5,49.5C 79.903,55.6875 77.903,61.3542 74.5,66.5C 69.3992,71.7135 63.3992,75.3801 56.5,77.5C 30.0261,77.8601 17.8594,64.8601 20,38.5C 25.7706,22.3569 37.2706,14.8569 54.5,16C 60.7095,17.4417 66.3762,19.9417 71.5,23.5 Z"/></g>
<g><path style="opacity:1" fill="#d28e95" d="M 48.5,70.5 C 49.2389,70.369 49.9056,70.5357 50.5,71C 49.7734,72.3988 49.2734,73.8988 49,75.5C 47.2116,73.9769 47.0449,72.3102 48.5,70.5 Z"/></g>
<g><path style="opacity:1" fill="#faf0ed" d="M 63.5,67.5 C 66.9571,67.6672 67.2904,68.6672 64.5,70.5C 63.6143,69.675 63.281,68.675 63.5,67.5 Z"/></g>
<g><path style="opacity:1" fill="#faeeed" d="M 33.5,67.5 C 34.5,67.5 35.5,67.5 36.5,67.5C 35.7542,71.31 34.7542,71.31 33.5,67.5 Z"/></g>
<g><path style="opacity:1" fill="#f8e3e3" d="M 28.5,63.5 C 26.5041,64.6878 25.6707,64.0211 26,61.5C 26.7083,62.3805 27.5416,63.0472 28.5,63.5 Z"/></g>
<g><path style="opacity:1" fill="#f3d1cf" d="M 28.5,59.5 C 32.1684,61.1093 32.1684,62.4426 28.5,63.5C 29.8333,62.1667 29.8333,60.8333 28.5,59.5 Z"/></g>
<g><path style="opacity:1" fill="#edcaca" d="M 69.5,59.5 C 71.1703,59.7512 72.6703,60.4178 74,61.5C 74.0628,64.475 73.3961,64.8083 72,62.5C 71.3333,63.8333 70.6667,63.8333 70,62.5C 69.5172,61.552 69.3505,60.552 69.5,59.5 Z"/></g>
<g><path style="opacity:1" fill="#edc2c3" d="M 25.5,55.5 C 26.5,55.5 27.5,55.5 28.5,55.5C 28.5,56.8333 28.5,58.1667 28.5,59.5C 23.5497,60.8912 22.5497,59.5579 25.5,55.5 Z"/></g>
<g><path style="opacity:1" fill="#f7e6e5" d="M 74.5,55.5 C 75.984,56.4733 76.484,57.8067 76,59.5C 75.3333,56.8333 74.6667,56.8333 74,59.5C 73.5518,57.7756 72.7185,57.109 71.5,57.5C 72.0047,56.0815 73.0047,55.4148 74.5,55.5 Z"/></g>
<g><path style="opacity:1" fill="#f2d1d6" d="M 74.5,55.5 C 74.0825,54.7784 73.4158,54.2784 72.5,54C 74.2889,53.4795 75.9556,53.8129 77.5,55C 76.552,55.4828 75.552,55.6495 74.5,55.5 Z"/></g>
<g><path style="opacity:1" fill="#eec0c4" d="M 25.5,55.5 C 24.448,55.6495 23.448,55.4828 22.5,55C 24.3333,54.5 25.5,53.3333 26,51.5C 27.93,53.0771 27.7633,54.4104 25.5,55.5 Z"/></g>
<g><path style="opacity:1" fill="#f8e5e6" d="M 73.5,48.5 C 75.1172,49.038 76.7839,49.3713 78.5,49.5C 78.7251,53.0562 77.8918,53.3895 76,50.5C 74.2382,50.9444 74.4049,51.4444 76.5,52C 75.552,52.4828 74.552,52.6495 73.5,52.5C 73.5,51.1667 73.5,49.8333 73.5,48.5 Z"/></g>
<g><path style="opacity:1" fill="#faeaeb" d="M 25.5,47.5 C 26.404,48.209 26.7373,49.209 26.5,50.5C 24.8008,50.6602 23.1341,50.4935 21.5,50C 23.437,49.8784 24.7703,49.045 25.5,47.5 Z"/></g>
<g><path style="opacity:1" fill="#efc4c9" d="M 73.5,44.5 C 75.5273,44.3379 77.5273,44.5045 79.5,45C 74.1667,45.6667 74.1667,46.3333 79.5,47C 77.5273,47.4955 75.5273,47.6621 73.5,47.5C 73.5,46.5 73.5,45.5 73.5,44.5 Z"/></g>
<g><path style="opacity:1" fill="#f6dfe2" d="M 21.5,42.5 C 22.2216,42.9175 22.7216,43.5842 23,44.5C 23.3333,43.8333 23.6667,43.1667 24,42.5C 24.3095,43.7659 24.8095,44.9326 25.5,46C 24.2068,46.49 22.8734,46.6567 21.5,46.5C 21.5,45.1667 21.5,43.8333 21.5,42.5 Z"/></g>
<g><path style="opacity:1" fill="#f2d5d5" d="M 77.5,39.5 C 78.5735,40.2506 78.7401,41.2506 78,42.5C 76.6796,42.201 75.1796,42.0343 73.5,42C 74.8584,41.0656 76.1917,40.2323 77.5,39.5 Z"/></g>
<g><path style="opacity:1" fill="#f2d0d1" d="M 22.5,37.5 C 23.1577,38.3984 23.8243,39.3984 24.5,40.5C 25.6956,40.1543 25.6956,39.6543 24.5,39C 25.448,38.5172 26.448,38.3505 27.5,38.5C 27.5,39.5 27.5,40.5 27.5,41.5C 25.396,41.7989 23.396,41.4656 21.5,40.5C 22.1272,39.5832 22.4606,38.5832 22.5,37.5 Z"/></g>
<g><path style="opacity:1" fill="#f6dbdc" d="M 74.5,35.5 C 75.5,35.5 76.5,35.5 77.5,35.5C 76.8333,36.8333 76.1667,38.1667 75.5,39.5C 73.6412,39.5391 72.3079,38.7058 71.5,37C 72.7441,36.5439 73.5774,37.0439 74,38.5C 74.4828,37.552 74.6495,36.552 74.5,35.5 Z"/></g>
<g><path style="opacity:1" fill="#ecc8ca" d="M 24.5,32.5 C 25.2216,32.9175 25.7216,33.5842 26,34.5C 27.073,33.7203 28.2396,33.887 29.5,35C 28.3764,37.4817 26.7097,37.9817 24.5,36.5C 23.3744,35.1916 23.3744,33.8583 24.5,32.5 Z"/></g>
<g><path style="opacity:1" fill="#d8d5d6" d="M 44.5,24.5 C 66.2682,24.7565 74.7682,35.4232 70,56.5C 61.7155,68.9263 50.8822,71.7596 37.5,65C 24.6666,53.3379 24.3333,41.3379 36.5,29C 39.1915,27.3952 41.8582,25.8952 44.5,24.5 Z"/></g>
<g><path style="opacity:1" fill="#a74350" d="M 45.5,64.5 C 48.0451,65.4271 50.3784,65.4271 52.5,64.5C 53.3081,64.8076 53.9747,65.3076 54.5,66C 53,66.1667 51.5,66.3333 50,66.5C 48.0145,66.4313 46.5145,65.7647 45.5,64.5 Z"/></g>
<g><path style="opacity:1" fill="#b42f3c" d="M 56.5,60.5 C 54.7103,61.9973 52.5437,62.664 50,62.5C 48.2933,62.4915 46.7933,62.1582 45.5,61.5C 49.2148,61.577 52.8815,61.2436 56.5,60.5 Z"/></g>
<g><path style="opacity:1" fill="#cb757b" d="M 61.5,56.5 C 60.8707,58.9971 59.204,60.3304 56.5,60.5C 56.0825,59.7784 55.4158,59.2784 54.5,59C 55.6492,57.2559 56.9825,57.0892 58.5,58.5C 59.5178,57.8075 60.5178,57.1408 61.5,56.5 Z"/></g>
<g><path style="opacity:1" fill="#ca7075" d="M 39.5,57.5 C 41.1059,58.3591 42.7725,58.5258 44.5,58C 45.6341,59.016 45.3008,59.6827 43.5,60C 44.4158,60.2784 45.0825,60.7784 45.5,61.5C 42.6627,61.3155 40.6627,59.9822 39.5,57.5 Z"/></g>
<g><path style="opacity:1" fill="#b8414c" d="M 37.5,54.5 C 38.9063,54.9731 39.573,55.9731 39.5,57.5C 38.0937,57.0269 37.427,56.0269 37.5,54.5 Z"/></g>
<g><path style="opacity:1" fill="#f6e8e9" d="M 61.5,56.5 C 60.5178,57.1408 59.5178,57.8075 58.5,58.5C 56.9825,57.0892 55.6492,57.2559 54.5,59C 55.4158,59.2784 56.0825,59.7784 56.5,60.5C 52.8815,61.2436 49.2148,61.577 45.5,61.5C 45.0825,60.7784 44.4158,60.2784 43.5,60C 45.3008,59.6827 45.6341,59.016 44.5,58C 42.7725,58.5258 41.1059,58.3591 39.5,57.5C 39.573,55.9731 38.9063,54.9731 37.5,54.5C 37.5,47.1667 37.5,39.8333 37.5,32.5C 45.8333,32.5 54.1667,32.5 62.5,32.5C 62.7701,40.555 62.4368,48.555 61.5,56.5 Z"/></g>
<g><path style="opacity:1" fill="#c46065" d="M 49.5,55.5 C 50.3764,55.3691 51.0431,55.7025 51.5,56.5C 50.6744,57.451 50.5078,58.451 51,59.5C 51.6543,58.3044 52.1543,58.3044 52.5,59.5C 48.9856,61.2647 47.4856,60.2647 48,56.5C 49.0875,58.9316 49.5875,58.5983 49.5,55.5 Z"/></g>
<g><path style="opacity:1" fill="#b74f58" d="M 44.5,49.5 C 47.0704,50.484 47.0704,51.6507 44.5,53C 45.1667,53.6667 45.8333,54.3333 46.5,55C 45.0654,54.6888 43.7321,54.8555 42.5,55.5C 42.0894,54.7376 41.9227,53.7376 42,52.5C 41.3457,53.6956 40.8457,53.6956 40.5,52.5C 41.9732,51.6135 43.3065,50.6135 44.5,49.5 Z"/></g>
<g><path style="opacity:1" fill="#be535a" d="M 61.5,56.5 C 62.4368,48.555 62.7701,40.555 62.5,32.5C 54.1667,32.5 45.8333,32.5 37.5,32.5C 37.5,39.8333 37.5,47.1667 37.5,54.5C 36.71,53.3915 36.21,52.0581 36,50.5C 35.5005,44.1754 35.3338,37.8421 35.5,31.5C 45.1667,31.5 54.8333,31.5 64.5,31.5C 64.6662,37.8421 64.4995,44.1754 64,50.5C 63.9977,53.0512 63.1644,55.0512 61.5,56.5 Z"/></g>
<g><path style="opacity:1" fill="#ca7b80" d="M 54.5,50.5 C 56.7505,50.1814 58.7505,50.6814 60.5,52C 58.1667,55.3333 55.8333,55.3333 53.5,52C 54.056,51.6174 54.3893,51.1174 54.5,50.5 Z"/></g>
<g><path style="opacity:1" fill="#d09398" d="M 58.5,46.5 C 58.5,46.1667 58.5,45.8333 58.5,45.5C 59.1515,44.9094 59.8182,44.2427 60.5,43.5C 60.8333,44.8333 61.1667,46.1667 61.5,47.5C 59.2351,48.6474 56.9018,48.8141 54.5,48C 56.7364,47.921 58.0697,47.421 58.5,46.5 Z"/></g>
<g><path style="opacity:1" fill="#c3757b" d="M 51.5,42.5 C 53.0739,44.1016 53.7406,46.1016 53.5,48.5C 46.3742,48.6369 46.0408,47.9702 52.5,46.5C 51.8333,46.1667 51.1667,45.8333 50.5,45.5C 51.1272,44.5832 51.4606,43.5832 51.5,42.5 Z"/></g>
<g><path style="opacity:1" fill="#ba545d" d="M 38.5,34.5 C 38.8333,34.5 39.1667,34.5 39.5,34.5C 39.5,36.5 39.5,38.5 39.5,40.5C 46.6619,40.3872 46.9952,39.3872 40.5,37.5C 42.396,36.5344 44.396,36.2011 46.5,36.5C 46.5,37.8333 46.5,39.1667 46.5,40.5C 51.1667,40.5 55.8333,40.5 60.5,40.5C 60.8333,40.5 61.1667,40.5 61.5,40.5C 60.9232,42.6516 59.7565,42.985 58,41.5C 57.235,43.0657 57.4017,44.3991 58.5,45.5C 58.5,45.8333 58.5,46.1667 58.5,46.5C 57.1266,46.6567 55.7932,46.49 54.5,46C 56.2826,44.9335 56.7826,43.4335 56,41.5C 55.1932,45.449 54.6932,45.449 54.5,41.5C 53.209,41.2627 52.209,41.596 51.5,42.5C 47.5,41.1667 43.5,41.1667 39.5,42.5C 39.5,43.8333 39.5,45.1667 39.5,46.5C 42.1143,46.2947 44.4476,46.2947 46.5,46.5C 44.3187,48.3484 41.9853,48.6817 39.5,47.5C 38.5078,43.2172 38.1744,38.8839 38.5,34.5 Z"/></g>
<g><path style="opacity:1" fill="#efd6d8" d="M 39.5,34.5 C 46.5,34.5 53.5,34.5 60.5,34.5C 60.5,36.5 60.5,38.5 60.5,40.5C 55.8333,40.5 51.1667,40.5 46.5,40.5C 46.5,39.1667 46.5,37.8333 46.5,36.5C 44.396,36.2011 42.396,36.5344 40.5,37.5C 46.9952,39.3872 46.6619,40.3872 39.5,40.5C 39.5,38.5 39.5,36.5 39.5,34.5 Z"/></g>
<g><path style="opacity:1" fill="#b61b29" d="M 48.5,36.5 C 50.288,36.2148 51.9547,36.5481 53.5,37.5C 52.6667,37.8333 51.8333,38.1667 51,38.5C 49.6244,38.3158 48.7911,37.6491 48.5,36.5 Z"/></g>
<g><path style="opacity:1" fill="#9d2733" d="M 38.5,34.5 C 45.9818,33.508 53.6484,33.1746 61.5,33.5C 61.5,35.8333 61.5,38.1667 61.5,40.5C 61.1667,40.5 60.8333,40.5 60.5,40.5C 60.5,38.5 60.5,36.5 60.5,34.5C 53.5,34.5 46.5,34.5 39.5,34.5C 39.1667,34.5 38.8333,34.5 38.5,34.5 Z"/></g>
<g><path style="opacity:1" fill="#e9c7c9" d="M 68.5,30.5 C 69.8195,29.0582 71.4862,28.3915 73.5,28.5C 73.5,29.8333 73.5,31.1667 73.5,32.5C 72.1779,32.33 71.0113,32.6634 70,33.5C 69.4867,32.4734 68.9867,31.4734 68.5,30.5 Z"/></g>
<g><path style="opacity:1" fill="#e6b6b8" d="M 67.5,24.5 C 71.4658,25.7848 71.4658,27.2848 67.5,29C 68.056,29.3826 68.3893,29.8826 68.5,30.5C 67.0047,30.5852 66.0047,29.9185 65.5,28.5C 66.6302,27.3777 67.2969,26.0443 67.5,24.5 Z"/></g>
<g><path style="opacity:1" fill="#ecc2c2" d="M 28.5,26.5 C 31.2974,26.9666 32.6308,28.6333 32.5,31.5C 28.745,31.4369 27.4116,29.7702 28.5,26.5 Z"/></g>
<g><path style="opacity:1" fill="#fbeeee" d="M 31.5,24.5 C 34.1505,24.9576 34.6505,25.9576 33,27.5C 31.9614,26.7562 31.4614,25.7562 31.5,24.5 Z"/></g>
<g><path style="opacity:1" fill="#f0d1d1" d="M 59.5,19.5 C 60.7911,20.5417 60.7911,21.7083 59.5,23C 61.1134,23.0885 62.2801,22.2552 63,20.5C 63.2641,22.6391 62.4308,24.3057 60.5,25.5C 59.2801,25.1131 58.6135,24.2798 58.5,23C 58.9891,21.8615 59.3225,20.6948 59.5,19.5 Z"/></g>
<g><path style="opacity:1" fill="#f5d8db" d="M 42.5,23.5 C 40.0413,26.1507 38.3747,25.484 37.5,21.5C 37.8333,20.5 38.5,19.8333 39.5,19.5C 39.9059,20.5575 39.9059,21.8908 39.5,23.5C 40.5,23.5 41.5,23.5 42.5,23.5 Z"/></g>
<g><path style="opacity:1" fill="#f2d3d2" d="M 67.5,24.5 C 65.9826,24.5106 64.8159,25.1772 64,26.5C 63.7544,21.4192 64.9211,20.7526 67.5,24.5 Z"/></g>
<g><path style="opacity:1" fill="#f1d6d9" d="M 49.5,20.5 C 52.3925,16.6082 53.0592,17.2748 51.5,22.5C 49.7859,23.6085 49.1192,22.9418 49.5,20.5 Z"/></g>
<g><path style="opacity:1" fill="#f3d7d9" d="M 54.5,18.5 C 55.9778,18.238 57.3112,18.5713 58.5,19.5C 57.1349,20.941 55.6349,22.2744 54,23.5C 54.0187,21.8925 54.1854,20.2259 54.5,18.5 Z"/></g>
<g><path style="opacity:1" fill="#faebeb" d="M 49.5,20.5 C 48.7784,20.9175 48.2784,21.5842 48,22.5C 47.2025,20.7412 47.3691,19.0745 48.5,17.5C 49.3857,18.325 49.719,19.325 49.5,20.5 Z"/></g>
<g><path style="opacity:1" fill="#f7e5e6" d="M 42.5,23.5 C 42.5,21.8333 42.5,20.1667 42.5,18.5C 45.9103,18.3838 47.2436,20.0504 46.5,23.5C 45.1667,23.5 43.8333,23.5 42.5,23.5 Z"/></g>
<g><path style="opacity:1" fill="#bb4d59" d="M 43.5,19.5 C 45.332,20.1405 45.6653,21.1405 44.5,22.5C 43.6143,21.675 43.281,20.675 43.5,19.5 Z"/></g>
<g><path style="opacity:1" fill="#e1afb3" d="M 40.5,69.5 C 41.3023,68.1153 41.9689,68.282 42.5,70C 42.1223,71.6349 41.4556,73.1349 40.5,74.5C 40.5188,72.8052 40.5188,71.1385 40.5,69.5 Z"/></g>
<g><path style="opacity:1" fill="#e2a9ae" d="M 55.5,70.5 C 56.3023,69.1153 56.9689,69.282 57.5,71C 58.5472,72.5777 58.5472,74.0777 57.5,75.5C 57.3059,73.9632 56.6392,72.2965 55.5,70.5 Z"/></g>
<g><path style="opacity:1" fill="#a6a4a5" d="M 56.5,77.5 C 63.3992,75.3801 69.3992,71.7135 74.5,66.5C 76.1053,65.0313 76.6053,65.3646 76,67.5C 67.3141,77.2849 56.4808,81.1182 43.5,79C 48.0195,78.8247 52.3528,78.3247 56.5,77.5 Z"/></g>
</svg>
